<?xml version="1.0" encoding="utf-8"?><!-- Uploaded to: SVG Repo, www.svgrepo.com, Generator: SVG Repo Mixer Tools -->
<svg width="800px" height="800px" viewBox="0 0 24 24" id="sign-out-alt-3" xmlns="http://www.w3.org/2000/svg" class="icon multi-color"><path id="secondary-stroke" d="M13,5h5a1,1,0,0,1,1,1V18a1,1,0,0,1-1,1H13" style="fill: none; stroke: rgb(44, 169, 188); stroke-linecap: round; stroke-linejoin: round; stroke-width: 2;"></path><path id="tertiary-fill" d="M10,3.75v16.5L5.76,19.19a1,1,0,0,1-.76-1V5.78a1,1,0,0,1,.76-1Z" style="fill: #b7b7b7; stroke-width: 2;"></path><path id="primary-stroke" d="M5.76,19.19l6,1.5a1,1,0,0,0,1.24-1V4.28a1,1,0,0,0-1.24-1l-6,1.5a1,1,0,0,0-.76,1V18.22A1,1,0,0,0,5.76,19.19Z" style="fill: none; stroke: rgb(0, 0, 0); stroke-linecap: round; stroke-linejoin: round; stroke-width: 2;"></path></svg>